<?xml version="1.0" encoding="UTF-8"?>
<svg version="1.1" xmlns="http://www.w3.org/2000/svg" width="500" height="500">
<path d="M0 0 C165 0 330 0 500 0 C500 165 500 330 500 500 C335 500 170 500 0 500 C0 335 0 170 0 0 Z " fill="#FEFEFE" transform="translate(0,0)"/>
<path d="M0 0 C3.76157029 1.63546535 5.85734843 3.53094508 8 7 C8.8589945 12.55637881 8.69113042 17.51534947 6.3125 22.625 C2.87369204 26.15674871 0.43317758 26.7876774 -4.375 27.5 C-9.24098685 26.8288294 -11.73783993 24.5570446 -15 21 C-16.9721491 17.05570181 -16.44867961 12.29883571 -16 8 C-12.1874846 0.50643524 -7.9252805 -0.90694231 0 0 Z " fill="#F9F9F9" transform="translate(404,228)"/>
<path d="M0 0 C4.09273155 2.08357243 6.31307138 3.75620198 8 8 C8.73003525 12.58377901 9.05740925 17.08865772 6.76171875 21.23828125 C3.39260573 25.27620082 1.07739497 26.80401934 -4.3125 27.3125 C-8.72563017 26.93850592 -10.66258074 25.87173285 -14 23 C-16.56715129 17.81294774 -16.83968321 12.67825378 -16 7 C-12.39521473 0.09864529 -7.19968074 -0.88332218 0 0 Z " fill="#F7F7F7" transform="translate(341,228)"/>
<path d="M0 0 C4.16394533 0.64060697 6.98526606 2.05378274 10 5 C10.75049345 9.0049697 10.29060424 12.95609875 10 17 C9.91358432 18.74458001 9.83188532 20.48939754 9.75390625 22.234375 C9.53085776 27.15802862 9.27231746 32.07883439 9 37 C6.875 37.75 6.875 37.75 4 38 C0.86132812 36.42553711 0.86132812 36.42553711 -2 34 C-2.71289062 30.96313477 -2.71289062 30.96313477 -2.65625 27.44140625 C-2.6459375 26.16845703 -2.635625 24.89550781 -2.625 23.58398438 C-2.604375 22.92358154 -2.58375 22.26317871 -2.5625 21.58276367 C-2.50029373 19.57199462 -2.48056722 17.56436957 -2.46875 15.55273438 C-2.29640713 4.90517625 -2.29640713 4.90517625 0 0 Z " fill="#3DB8FF" transform="translate(93,229)"/>
<path d="M0 0 C4.03029512 0.44781057 6.93881789 2.44901491 10 5 C10.62109375 8.328125 10.62109375 8.328125 10.4375 12.25 C10.41300781 12.94222656 10.38851562 13.63445312 10.36328125 14.34765625 C10.27526382 16.56809584 10.14111473 18.78234614 10 21 C9.9172049 22.53641736 9.83516969 24.07287587 9.75390625 25.609375 C9.54125933 29.40955443 9.28264988 33.20441596 9 37 C5.60942715 38.19667277 4.13757676 38.05054842 0.71484375 36.79296875 C-2.37068111 33.61865181 -2.43101041 32.9142811 -2.62109375 28.67578125 C-2.59053621 26.55402487 -2.52812184 24.43254046 -2.4375 22.3125 C-2.41880859 21.26126953 -2.40011719 20.21003906 -2.38085938 19.12695312 C-1.98620621 1.98620621 -1.98620621 1.98620621 0 0 Z " fill="#3DB8FF" transform="translate(120,226)"/>
<path d="M0 0 C4.872869 0.45329014 7.5921231 1.43687578 11 5 C11.37921016 7.70291818 11.45686893 9.72156255 11.26953125 12.390625 C11.24026047 13.09523865 11.21098969 13.79985229 11.18083191 14.52581787 C11.08211188 16.76911267 10.94783703 19.00864577 10.8125 21.25 C10.73918225 22.77332601 10.66819188 24.29676595 10.59960938 25.8203125 C10.42669391 29.54857401 10.22185863 33.27429418 10 37 C7.71035144 37.791257 6.43119628 38.14096802 4.09570312 37.37744141 C1.14536947 35.50609145 -0.70277858 34.18336299 -1.578125 30.69824219 C-1.72909962 27.89367888 -1.65950509 25.1790056 -1.5 22.375 C-1.47099609 21.39257324 -1.44199219 20.41014648 -1.41210938 19.39794922 C-1.19305637 12.92192624 -0.86084754 6.42561203 0 0 Z " fill="#3BB7FF" transform="translate(106,210)"/>
<path d="M0 0 C3 2 3 2 5 5 C5.33 7.64 5.66 10.28 6 13 C0.06 13 -5.88 13 -12 13 C-11.34 15.64 -10.68 18.28 -10 21 C-7.23547967 22.38226016 -4.9538637 22.09525387 -1.875 22.0625 C-0.77929688 22.05347656 0.31640625 22.04445312 1.4453125 22.03515625 C2.28835937 22.02355469 3.13140625 22.01195312 4 22 C4.33 22.99 4.66 23.98 5 25 C0.66956494 27.42426162 -3.11907289 27.9515757 -8 27 C-11.38616182 25.06505039 -14.36246098 22.84177939 -15.66796875 19.0703125 C-16.53047846 13.69231078 -16.77295015 9.46593995 -14.1875 4.5625 C-9.97420096 -0.37307888 -6.18483402 -1.03080567 0 0 Z " fill="#151515" transform="translate(238,228)"/>
<path d="M0 0 C3.76157029 1.63546535 5.85734843 3.53094508 8 7 C8.8589945 12.55637881 8.69113042 17.51534947 6.3125 22.625 C2.87369204 26.15674871 0.43317758 26.7876774 -4.375 27.5 C-9.24098685 26.8288294 -11.73783993 24.5570446 -15 21 C-16.9721491 17.05570181 -16.44867961 12.29883571 -16 8 C-12.1874846 0.50643524 -7.9252805 -0.90694231 0 0 Z M-9.875 4.875 C-12.8560387 9.25888044 -12.88698187 12.84705772 -12 18 C-10.73680006 21.24790764 -10.73680006 21.24790764 -8 23 C-5.19672122 23.63763103 -2.80390852 23.63332636 0 23 C2.96858157 20.79259319 3.82865791 19.51402627 5 16 C5.38887761 11.80012182 5.45908323 9.70392762 3.125 6.125 C0.62545713 3.62545713 -0.32175958 3.09043206 -3.8125 2.625 C-7.12009597 2.77463445 -7.12009597 2.77463445 -9.875 4.875 Z " fill="#171717" transform="translate(404,228)"/>
<path d="M0 0 C4.09273155 2.08357243 6.31307138 3.75620198 8 8 C8.73003525 12.58377901 9.05740925 17.08865772 6.76171875 21.23828125 C3.39260573 25.27620082 1.07739497 26.80401934 -4.3125 27.3125 C-8.72563017 26.93850592 -10.66258074 25.87173285 -14 23 C-16.56715129 17.81294774 -16.83968321 12.67825378 -16 7 C-12.39521473 0.09864529 -7.19968074 -0.88332218 0 0 Z M-12.12109375 7.22265625 C-13.64190611 10.29807681 -13.47787342 12.65488604 -13 16 C-11.41772398 20.30843924 -11.41772398 20.30843924 -8 23 C-2.52009548 23.48220894 -2.52009548 23.48220894 2.5 21.6875 C4.95596768 17.28722457 4.82698058 12.90384978 4 8 C2.16348401 4.66178189 2.16348401 4.66178189 -1 3 C-6.23913542 1.97088411 -8.94357613 2.7657421 -12.12109375 7.22265625 Z " fill="#161616" transform="translate(341,228)"/>
<path d="M0 0 C1.32 0 2.64 0 4 0 C4.02505615 0.59538574 4.0501123 1.19077148 4.07592773 1.80419922 C4.19177494 4.49469136 4.31455196 7.1848234 4.4375 9.875 C4.47681641 10.81214844 4.51613281 11.74929687 4.55664062 12.71484375 C4.59853516 13.61074219 4.64042969 14.50664062 4.68359375 15.4296875 C4.72025146 16.25710449 4.75690918 17.08452148 4.79467773 17.93701172 C4.88238327 20.06179429 4.88238327 20.06179429 6 22 C9.96388638 22.07622858 13.1273408 21.9681648 17 21 C17 14.07 17 7.14 17 0 C18.32 0 19.64 0 21 0 C21 8.58 21 17.16 21 26 C19.35 25.67 17.7 25.34 16 25 C15.34 25.33 14.68 25.66 14 26 C11.72265625 26.23828125 11.72265625 26.23828125 9.0625 26.3125 C8.18722656 26.34988281 7.31195313 26.38726562 6.41015625 26.42578125 C4 26 4 26 2.24609375 24.16796875 C0.34920376 20.86773696 -0.12272096 18.28542305 -0.09765625 14.55078125 C-0.09443359 13.70322266 -0.09121094 12.85566406 -0.08789062 11.98242188 C-0.07951172 11.10134766 -0.07113281 10.22027344 -0.0625 9.3125 C-0.05798828 8.41982422 -0.05347656 7.52714844 -0.04882812 6.60742188 C-0.03704983 4.40488013 -0.02060164 2.20247401 0 0 Z " fill="#242424" transform="translate(419,228)"/>
<path d="M0 0 C1.32 0 2.64 0 4 0 C4.33 0.66 4.66 1.32 5 2 C5.99 1.34 6.98 0.68 8 0 C12.13930053 -0.30104004 15.57099387 -0.54000454 19 2 C20.85116837 5.01445282 21.24032475 7.25466915 21.1953125 10.765625 C21.18886719 11.65507812 21.18242187 12.54453125 21.17578125 13.4609375 C21.15902344 14.38132813 21.14226562 15.30171875 21.125 16.25 C21.11597656 17.18585938 21.10695313 18.12171875 21.09765625 19.0859375 C21.07413636 21.39088657 21.04126853 23.6953116 21 26 C19.68 26 18.36 26 17 26 C16.67 18.74 16.34 11.48 16 4 C9.2981424 3.47825081 9.2981424 3.47825081 5 6 C4.67 12.6 4.34 19.2 4 26 C2.68 26 1.36 26 0 26 C0 17.42 0 8.84 0 0 Z " fill="#1F1F1F" transform="translate(268,228)"/>
<path d="M0 0 C2.6442164 2.19965462 3.85930938 3.93625232 4.31469727 7.37939453 C4.39396771 10.20101456 4.34851422 12.99158325 4.25 15.8125 C4.23195312 16.79154297 4.21390625 17.77058594 4.1953125 18.77929688 C4.14832887 21.18720771 4.08265694 23.59309335 4 26 C3.01 26 2.02 26 1 26 C0.98018066 25.40461426 0.96036133 24.80922852 0.93994141 24.19580078 C0.84483874 21.50507847 0.73510158 18.81514852 0.625 16.125 C0.5940625 15.18785156 0.563125 14.25070313 0.53125 13.28515625 C0.49257812 12.38925781 0.45390625 11.49335938 0.4140625 10.5703125 C0.3826416 9.74289551 0.3512207 8.91547852 0.31884766 8.06298828 C0.17400863 5.78013915 0.17400863 5.78013915 -2 4 C-6.56241479 3.59445202 -8.5673705 4.2269482 -13 6 C-13 12.6 -13 19.2 -13 26 C-13.99 26 -14.98 26 -16 26 C-16 17.75 -16 9.5 -16 1 C-15.01 1 -14.02 1 -13 1 C-13 1.66 -13 2.32 -13 3 C-12.34 2.505 -11.68 2.01 -11 1.5 C-6.85314682 -0.57342659 -4.61882953 -0.58651804 0 0 Z " fill="#090909" transform="translate(194,228)"/>
<path d="M0 0 C1.32 0 2.64 0 4 0 C5.37207031 1.56054688 5.37207031 1.56054688 6.578125 3.71875 C7.01640625 4.48574219 7.4546875 5.25273437 7.90625 6.04296875 C8.3496875 6.85378906 8.793125 7.66460937 9.25 8.5 C9.93835938 9.71623047 9.93835938 9.71623047 10.640625 10.95703125 C11.77408313 12.96419669 12.89293947 14.97819118 14 17 C17.00621497 13.41515516 19.43002885 9.74744951 21.75 5.6875 C22.36359375 4.61886719 22.9771875 3.55023438 23.609375 2.44921875 C24.06828125 1.64097656 24.5271875 0.83273438 25 0 C26.32 0.33 27.64 0.66 29 1 C28.64172119 1.53254395 28.28344238 2.06508789 27.91430664 2.61376953 C17.87732216 17.52088795 17.87732216 17.52088795 16 35 C15.01 35 14.02 35 13 35 C13.06703125 34.22140625 13.1340625 33.4428125 13.203125 32.640625 C13.36985728 20.58032373 7.59858495 12.48341835 1.08569336 2.72729492 C0 1 0 1 0 0 Z " fill="#0D0D0D" transform="translate(354,219)"/>
<path d="M0 0 C8.25 0 16.5 0 25 0 C25 0.99 25 1.98 25 3 C21.37 3 17.74 3 14 3 C14 13.56 14 24.12 14 35 C13.01 35 12.02 35 11 35 C11 24.44 11 13.88 11 3 C7.37 3 3.74 3 0 3 C0 2.01 0 1.02 0 0 Z " fill="#000000" transform="translate(295,219)"/>
<path d="M0 0 C0.99 0 1.98 0 3 0 C3 2.97 3 5.94 3 9 C4.98 9 6.96 9 9 9 C9 9.99 9 10.98 9 12 C7.02 12 5.04 12 3 12 C3.33 17.94 3.66 23.88 4 30 C5.65 30.33 7.3 30.66 9 31 C8.67 32.32 8.34 33.64 8 35 C1.125 34.125 1.125 34.125 0 33 C-0.08685603 31.43827255 -0.10702219 29.87270656 -0.09765625 28.30859375 C-0.09282227 26.89223633 -0.09282227 26.89223633 -0.08789062 25.44726562 C-0.07951172 24.45404297 -0.07113281 23.46082031 -0.0625 22.4375 C-0.05798828 21.44041016 -0.05347656 20.44332031 -0.04882812 19.41601562 C-0.03700007 16.94395151 -0.02051849 14.47200482 0 12 C-0.99 12 -1.98 12 -3 12 C-3 11.01 -3 10.02 -3 9 C-2.01 9 -1.02 9 0 9 C0 6.03 0 3.06 0 0 Z " fill="#0A0A0A" transform="translate(208,220)"/>
<path d="M0 0 C1.32 0 2.64 0 4 0 C4.33 0.66 4.66 1.32 5 2 C5.99 1.34 6.98 0.68 8 0 C9.32 0 10.64 0 12 0 C12 0.99 12 1.98 12 3 C8.535 4.485 8.535 4.485 5 6 C4.67 12.6 4.34 19.2 4 26 C2.68 26 1.36 26 0 26 C0 17.42 0 8.84 0 0 Z " fill="#282828" transform="translate(250,228)"/>
<path d="M0 0 C1.32 0 2.64 0 4 0 C4.33 0.66 4.66 1.32 5 2 C5.66 2.33 6.32 2.66 7 3 C6.01 4.485 6.01 4.485 5 6 C4.6349209 8.22131423 4.6349209 8.22131423 4.5859375 10.66796875 C4.54726563 11.56064453 4.50859375 12.45332031 4.46875 13.37304688 C4.4378125 14.30181641 4.406875 15.23058594 4.375 16.1875 C4.33632813 17.12787109 4.29765625 18.06824219 4.2578125 19.03710938 C4.16356813 21.3578771 4.07795975 23.67863748 4 26 C2.68 26 1.36 26 0 26 C0 17.42 0 8.84 0 0 Z " fill="#282828" transform="translate(268,228)"/>
<path d="M0 0 C0.99 0 1.98 0 3 0 C3 0.66 3 1.32 3 2 C3.66 2 4.32 2 5 2 C5 2.99 5 3.98 5 5 C4.34 5 3.68 5 3 5 C3 11.6 3 18.2 3 25 C2.01 25 1.02 25 0 25 C0 16.75 0 8.5 0 0 Z " fill="#010101" transform="translate(178,229)"/>
<path d="M0 0 C2.375 1.8125 2.375 1.8125 4 4 C4 4.99 4 5.98 4 7 C-0.62 7 -5.24 7 -10 7 C-8.45570268 0.82281074 -6.50414829 -0.92916404 0 0 Z " fill="#F4F4F4" transform="translate(236,231)"/>
<path d="M0 0 C0.99 0 1.98 0 3 0 C3 8.25 3 16.5 3 25 C2.01 25 1.02 25 0 25 C0 16.75 0 8.5 0 0 Z " fill="#000000" transform="translate(166,229)"/>
<path d="M0 0 C1.32 0.33 2.64 0.66 4 1 C2.76478085 3.15563731 1.51329661 5.29840734 0.25 7.4375 C-0.09804688 8.04916016 -0.44609375 8.66082031 -0.8046875 9.29101562 C-3.49291965 13.79629358 -3.49291965 13.79629358 -6.265625 14.91015625 C-6.83796875 14.93980469 -7.4103125 14.96945313 -8 15 C-6.62712658 11.30123909 -4.93644547 8.0485524 -2.875 4.6875 C-2.33617187 3.80449219 -1.79734375 2.92148438 -1.2421875 2.01171875 C-0.83226562 1.34785156 -0.42234375 0.68398437 0 0 Z " fill="#141414" transform="translate(379,219)"/>
<path d="M0 0 C0 0.99 0 1.98 0 3 C-2.64 3.99 -5.28 4.98 -8 6 C-8.33 5.01 -8.66 4.02 -9 3 C-5.55930376 0.70620251 -4.27709699 0 0 0 Z " fill="#181818" transform="translate(262,228)"/>
<path d="M0 0 C0.99 0 1.98 0 3 0 C3 1.98 3 3.96 3 6 C2.01 6 1.02 6 0 6 C0 4.02 0 2.04 0 0 Z " fill="#000000" transform="translate(166,217)"/>
</svg>
