<?xml version="1.0" encoding="UTF-8"?>
<svg version="1.1" xmlns="http://www.w3.org/2000/svg" width="500" height="500">
<path d="M0 0 C165 0 330 0 500 0 C500 165 500 330 500 500 C335 500 170 500 0 500 C0 335 0 170 0 0 Z " fill="#FEFEFE" transform="translate(0,0)"/>
<path d="M0 0 C2.866875 -0.103125 5.73375 -0.20625 8.6875 -0.3125 C10.02880981 -0.38078003 10.02880981 -0.38078003 11.3972168 -0.45043945 C15.71572528 -0.52550605 17.48778806 -0.38744236 21.046875 2.3046875 C23.62352508 5.86046461 23.68048895 7.69023668 23 12 C21 15.4375 21 15.4375 19 18 C19.639375 18.309375 20.27875 18.61875 20.9375 18.9375 C23 20 23 20 24 21 C24.54420744 25.3982667 24.84147485 28.87803353 22.125 32.5 C19.11447744 34.62507475 17.50066101 35.12324409 13.8671875 35.09765625 C13.14128418 35.09515869 12.41538086 35.09266113 11.66748047 35.09008789 C10.74596191 35.08098389 9.82444336 35.07187988 8.875 35.0625 C5.94625 35.041875 3.0175 35.02125 0 35 C0 23.45 0 11.9 0 0 Z " fill="#161616" transform="translate(415,220)"/>
<path d="M0 0 C5.61 0 11.22 0 17 0 C22 5 22 5 22.6640625 7.53515625 C22.5582223 14.38301746 22.5582223 14.38301746 19.625 17.625 C17 19 17 19 15 19 C19.455 26.425 19.455 26.425 24 34 C22.02 34.495 22.02 34.495 20 35 C18.49445366 32.71180854 16.99542957 30.41978831 15.5 28.125 C15.07074219 27.47402344 14.64148438 26.82304687 14.19921875 26.15234375 C11 21.2265625 11 21.2265625 11 19 C8.36 19 5.72 19 3 19 C3 24.28 3 29.56 3 35 C2.01 35 1.02 35 0 35 C0 23.45 0 11.9 0 0 Z " fill="#060606" transform="translate(275,220)"/>
<path d="M0 0 C5 1 5 1 6.49804688 2.54711914 C6.90087891 3.20317139 7.30371094 3.85922363 7.71875 4.53515625 C8.17636719 5.26283203 8.63398438 5.99050781 9.10546875 6.74023438 C9.79576172 7.88975586 9.79576172 7.88975586 10.5 9.0625 C11.19029297 10.17141602 11.19029297 10.17141602 11.89453125 11.30273438 C12.77067534 12.71320296 13.64065884 14.1275339 14.50195312 15.54711914 C16.64031926 19.04844974 18.82558766 22.52094026 21 26 C21.33 17.42 21.66 8.84 22 0 C23.32 0 24.64 0 26 0 C26 11.55 26 23.1 26 35 C21 34 21 34 19.60961914 32.56054688 C19.07776001 31.64885742 19.07776001 31.64885742 18.53515625 30.71875 C18.12716797 30.04070312 17.71917969 29.36265625 17.29882812 28.6640625 C16.89083984 27.94992188 16.48285156 27.23578125 16.0625 26.5 C12.53285418 20.53281567 8.85647623 14.78471435 5 9 C4.67 17.58 4.34 26.16 4 35 C2.68 35 1.36 35 0 35 C0 23.45 0 11.9 0 0 Z " fill="#171717" transform="translate(307,220)"/>
<path d="M0 0 C4.19300544 0.64507776 6.99352291 1.99352291 10 5 C10.61406503 8.65569556 10.40218891 12.20087272 10.14404297 15.88867188 C9.98061458 18.28414422 9.86540949 20.67968583 9.75390625 23.078125 C9.5330733 27.72080279 9.27437097 32.36019098 9 37 C6.875 37.75 6.875 37.75 4 38 C0.86132812 36.45727539 0.86132812 36.45727539 -2 34 C-2.71289062 30.74780273 -2.71289062 30.74780273 -2.65625 26.93359375 C-2.65250366 26.25829117 -2.64875732 25.58298859 -2.64489746 24.88722229 C-2.63148878 23.46408238 -2.60372095 22.04101421 -2.5625 20.6184082 C-2.50009664 18.44087227 -2.48055007 16.26623272 -2.46875 14.08789062 C-2.32843499 3.49265249 -2.32843499 3.49265249 0 0 Z " fill="#3DB8FF" transform="translate(93,229)"/>
<path d="M0 0 C3.66672026 0.39286288 6.75421684 2.35493777 10 4 C9.90640959 8.36032391 9.80030419 12.72010939 9.68261719 17.07983398 C9.64434653 18.56282212 9.60949022 20.04590248 9.578125 21.52905273 C9.532432 23.66163072 9.47444662 25.79357491 9.4140625 27.92578125 C9.3826416 29.20880127 9.3512207 30.49182129 9.31884766 31.8137207 C9 35 9 35 7 38 C3.53680809 36.74940292 0.61648578 35.62577386 -2 33 C-2.48583984 29.84545898 -2.48583984 29.84545898 -2.4609375 25.99609375 C-2.46002106 25.31700455 -2.45910461 24.63791534 -2.4581604 23.93824768 C-2.45212638 22.50506587 -2.43638588 21.07189655 -2.41162109 19.63891602 C-2.37507069 17.44174935 -2.37060199 15.24626728 -2.37109375 13.04882812 C-2.29518697 2.29518697 -2.29518697 2.29518697 0 0 Z " fill="#3FB9FF" transform="translate(107,210)"/>
<path d="M0 0 C4.15315234 0.46146137 7.07246095 2.07246095 10 5 C10.61406503 8.65569556 10.40218891 12.20087272 10.14404297 15.88867188 C9.98061458 18.28414422 9.86540949 20.67968583 9.75390625 23.078125 C9.5330733 27.72080279 9.27437097 32.36019098 9 37 C5.49838465 38.23586424 4.18707168 38.08074557 0.71484375 36.58203125 C-2 34 -2 34 -2.62109375 30.19921875 C-2.59175752 28.69435378 -2.52872126 27.18988406 -2.4375 25.6875 C-2.41228271 24.89802979 -2.38706543 24.10855957 -2.36108398 23.29516602 C-2.27348489 20.86069211 -2.14102305 18.43190797 -2 16 C-1.92927548 14.50522777 -1.85894462 13.01043685 -1.7890625 11.515625 C-1.24269387 1.24269387 -1.24269387 1.24269387 0 0 Z " fill="#3EB9FF" transform="translate(120,226)"/>
<path d="M0 0 C1.65 0 3.3 0 5 0 C6.9128418 2.15551758 6.9128418 2.15551758 8.69921875 5.14453125 C9.67665039 6.74844727 9.67665039 6.74844727 10.67382812 8.38476562 C11.6705957 10.08149414 11.6705957 10.08149414 12.6875 11.8125 C13.36361328 12.93205078 14.03972656 14.05160156 14.73632812 15.20507812 C15.99104304 17.28378493 17.23815547 19.36711202 18.4753418 21.45629883 C19.60112078 23.33452001 20.78533409 25.17800114 22 27 C22.33 18.09 22.66 9.18 23 0 C23.99 0 24.98 0 26 0 C26 11.55 26 23.1 26 35 C24.68 35 23.36 35 22 35 C20.30834961 33.05981445 20.30834961 33.05981445 18.65234375 30.36328125 C18.04712891 29.39326172 17.44191406 28.42324219 16.81835938 27.42382812 C16.19767578 26.39708984 15.57699219 25.37035156 14.9375 24.3125 C14.31294922 23.30509766 13.68839844 22.29769531 13.04492188 21.25976562 C10.32514148 16.86225517 7.66028173 12.43380288 5 8 C4.67 16.91 4.34 25.82 4 35 C2.68 35 1.36 35 0 35 C0 23.45 0 11.9 0 0 Z " fill="#121212" transform="translate(180,220)"/>
<path d="M0 0 C1.32 0 2.64 0 4 0 C4 5.28 4 10.56 4 16 C10.27 16 16.54 16 23 16 C23 10.72 23 5.44 23 0 C23.99 0 24.98 0 26 0 C26 11.55 26 23.1 26 35 C25.01 35 24.02 35 23 35 C23 29.72 23 24.44 23 19 C16.73 19 10.46 19 4 19 C4 24.28 4 29.56 4 35 C2.68 35 1.36 35 0 35 C0 23.45 0 11.9 0 0 Z " fill="#0F0F0F" transform="translate(343,220)"/>
<path d="M0 0 C0.99 0 1.98 0 3 0 C3.01458252 0.76143311 3.02916504 1.52286621 3.04418945 2.30737305 C3.11880541 5.76791888 3.21542259 9.22751445 3.3125 12.6875 C3.33505859 13.88568359 3.35761719 15.08386719 3.38085938 16.31835938 C3.41630859 17.47529297 3.45175781 18.63222656 3.48828125 19.82421875 C3.51446533 20.88729248 3.54064941 21.95036621 3.56762695 23.0456543 C4.05603843 26.38290288 4.97314787 28.31989255 7 31 C9.61683801 31.79020737 9.61683801 31.79020737 12.5 31.625 C13.4590625 31.63789063 14.418125 31.65078125 15.40625 31.6640625 C18.16718058 31.24420115 18.16718058 31.24420115 19.63012695 28.84448242 C21.18423827 25.61743717 21.42384935 23.39171632 21.51171875 19.82421875 C21.54716797 18.66728516 21.58261719 17.51035156 21.61914062 16.31835938 C21.64169922 15.12017578 21.66425781 13.92199219 21.6875 12.6875 C21.72166016 11.46998047 21.75582031 10.25246094 21.79101562 8.99804688 C21.87334817 5.99878986 21.94254921 2.99981986 22 0 C22.99 0 23.98 0 25 0 C25.08719631 4.56237931 25.14045922 9.12454386 25.1875 13.6875 C25.21263672 14.98107422 25.23777344 16.27464844 25.26367188 17.60742188 C25.27333984 18.85458984 25.28300781 20.10175781 25.29296875 21.38671875 C25.3086792 22.53358154 25.32438965 23.68044434 25.34057617 24.86206055 C24.9596217 28.37203033 24.1046901 30.19322739 22 33 C17.51613375 36.02400282 13.28551557 36.96866022 8 36 C4.24787724 33.98497111 2.36355905 32.54533858 0 29 C-0.22705078 25.99731445 -0.22705078 25.99731445 -0.1953125 22.36328125 C-0.18886719 21.06455078 -0.18242187 19.76582031 -0.17578125 18.42773438 C-0.1590706 17.05598693 -0.14214071 15.68424214 -0.125 14.3125 C-0.11496674 12.92904282 -0.10584149 11.54557873 -0.09765625 10.16210938 C-0.07404967 6.77456548 -0.04112037 3.38736928 0 0 Z " fill="#0A0A0A" transform="translate(380,220)"/>
<path d="M0 0 C6.93 0 13.86 0 21 0 C21 0.99 21 1.98 21 3 C15.06 3 9.12 3 3 3 C3 7.29 3 11.58 3 16 C7.95 16 12.9 16 18 16 C18 16.99 18 17.98 18 19 C13.05 19 8.1 19 3 19 C3 23.29 3 27.58 3 32 C8.94 32 14.88 32 21 32 C21 32.99 21 33.98 21 35 C14.07 35 7.14 35 0 35 C0 23.45 0 11.9 0 0 Z " fill="#030303" transform="translate(246,220)"/>
<path d="M0 0 C1.8975 -0.061875 3.795 -0.12375 5.75 -0.1875 C7.35101563 -0.23970703 7.35101563 -0.23970703 8.984375 -0.29296875 C12.34628825 0.03364199 13.67024342 0.58723546 16 3 C16.5625 6.4375 16.5625 6.4375 16 10 C14.1875 12.4375 14.1875 12.4375 11 14 C7.26404083 14.32007515 3.76377201 14.1813866 0 14 C0 9.38 0 4.76 0 0 Z " fill="#ECECEC" transform="translate(278,223)"/>
<path d="M0 0 C8.25 0 16.5 0 25 0 C25 0.99 25 1.98 25 3 C21.7 3 18.4 3 15 3 C15 13.56 15 24.12 15 35 C13.68 35 12.36 35 11 35 C11 24.44 11 13.88 11 3 C7.37 3 3.74 3 0 3 C0 2.01 0 1.02 0 0 Z " fill="#161616" transform="translate(213,220)"/>
<path d="M0 0 C1.8975 -0.061875 3.795 -0.12375 5.75 -0.1875 C7.35101563 -0.23970703 7.35101563 -0.23970703 8.984375 -0.29296875 C12.34503863 0.03352059 13.67828434 0.57854477 16 3 C16.73385013 8.87080103 16.73385013 8.87080103 14.890625 11.70703125 C10.82315564 14.48870967 4.65906496 13.13838807 0 13 C0 8.71 0 4.42 0 0 Z " fill="#FAFAFA" transform="translate(419,239)"/>
<path d="M0 0 C10.625 -0.125 10.625 -0.125 14 1 C15.54163175 4.0832635 15.29747535 6.60878099 15 10 C12.7521495 12.31660828 11.42993683 12.95496472 8.203125 13.29296875 C5.46875 13.1953125 2.734375 13.09765625 0 13 C0 8.71 0 4.42 0 0 Z " fill="#F8F8F8" transform="translate(419,223)"/>
<path d="M0 0 C1.32 0 2.64 0 4 0 C4 11.55 4 23.1 4 35 C2.68 35 1.36 35 0 35 C0 23.45 0 11.9 0 0 Z " fill="#1F1F1F" transform="translate(166,220)"/>
<path d="M0 0 C2.40667212 2.13741079 2.9592141 2.6300136 3.328125 5.9765625 C3.30234375 7.18054688 3.2765625 8.38453125 3.25 9.625 C3.23904297 10.27218994 3.22808594 10.91937988 3.21679688 11.58618164 C3.04561928 19.39988068 2.53435536 27.20413698 2 35 C1.67 35 1.34 35 1 35 C0.95101562 34.21753906 0.90203125 33.43507813 0.8515625 32.62890625 C0.77679688 31.61699219 0.70203125 30.60507813 0.625 29.5625 C0.55539063 28.55316406 0.48578125 27.54382813 0.4140625 26.50390625 C0.27742188 25.67761719 0.14078125 24.85132813 0 24 C-0.66 23.67 -1.32 23.34 -2 23 C-1.67 22.34 -1.34 21.68 -1 21 C-0.84824451 19.40737934 -0.75099675 17.80935144 -0.68359375 16.2109375 C-0.64169922 15.26992187 -0.59980469 14.32890625 -0.55664062 13.359375 C-0.51732422 12.37453125 -0.47800781 11.3896875 -0.4375 10.375 C-0.39431641 9.38242188 -0.35113281 8.38984375 -0.30664062 7.3671875 C-0.20038931 4.91160162 -0.09835036 2.45591297 0 0 Z " fill="#BCE6FF" transform="translate(116,224)"/>
<path d="M0 0 C1.32 0.33 2.64 0.66 4 1 C3.01 1.66 2.02 2.32 1 3 C0.21011855 4.95385067 0.21011855 4.95385067 -0.1875 7.125 C-0.455625 8.40375 -0.72375 9.6825 -1 11 C-1.33 11 -1.66 11 -2 11 C-2.25 3.375 -2.25 3.375 0 0 Z " fill="#76CEFF" transform="translate(93,229)"/>
</svg>
